# xmcd
#
# Track frame offsets: 
#        150
#        20215
#        37340
#        58892
#        77987
#        99025
#        114032
#        132825
#        150115
#        165717
#        178702
#        194255
#
# Disc length: 2900 seconds
#
# Revision: 0
# Processed by: cddbd v1.4PL0 Copyright (c) Steve Scherf et al.
# Submitted via: ExactAudioCopy v0.90b3
#
DISCID=950b520c
DTITLE=Carlene Carter - Hurricane
DYEAR=1900
DGENRE=Country
TTITLE0=I Knew The Bride
TTITLE1=Come On Back
TTITLE2=I Love You 'Cause I Want To
TTITLE3=Baby Ride Easy
TTITLE4=Something Already Gone (Unreleased)
TTITLE5=Hurricane (Unreleased)
TTITLE6=Me And The Wildwood Rose
TTITLE7=Unbreakable Heart
TTITLE8=Get Rhythm (Unrealeased)
TTITLE9=Cry
TTITLE10=Every Little Thing
TTITLE11=I Fell In Love
EXTD=
EXTT0=
EXTT1=
EXTT2=
EXTT3=
EXTT4=
EXTT5=
EXTT6=
EXTT7=
EXTT8=
EXTT9=
EXTT10=
EXTT11=
PLAYORDER=
